<svg xmlns:ns0="http://www.w3.org/2000/svg" xmlns:ns1="http://www.inkscape.org/namespaces/inkscape" xmlns="http://www.w3.org/2000/svg" viewBox="0.0 0.0 478.39506172839504 452.97748729121275"><ns0:path style="fill-rule:evenodd;fill:rgb(85.098039%,81.568627%,78.823529%);fill-opacity:1;stroke-width:0.75;stroke-linecap:butt;stroke-linejoin:miter;stroke:rgb(72.54902%,66.27451%,61.176471%);stroke-opacity:1;stroke-miterlimit:4;" d="M 22.01343500363108 295.2062627087872 L 38.80009803921568 294.706279956427 L 38.871016702977485 298.9969135802469 L 65.52259259259259 298.4011891793754 L 65.88782770515614 332.90001452432824 L 61.668113652868556 332.9638425925926 L 61.54400417574437 325.3789941902687 L 46.427497276688456 325.637850399419 L 46.7608197167756 341.41745551924475 L 61.724849310094406 341.7649609658678 L 61.66102124183006 337.1480973129993 L 63.94463144517066 336.96370642701527 L 65.93392519970952 336.81122912127813 L 66.22824164851126 365.0123965141612 L 72.21385348583878 365.2925290486565 L 72.35923928830792 369.8455655410312 L 79.94763253449528 369.6930882352941 L 79.83061546840959 331.84685911401596 L 79.75260439360929 305.7732788671024 L 106.37226579520697 305.337123275236 L 106.23042665214234 302.3053113652868 L 108.30482389251996 302.24857570806097 L 108.96792120551925 341.10186274509806 L 109.51400236020334 373.3667220406681 L 115.50315994916485 373.1716938997821 L 115.45351670297748 380.955116194626 L 125.79004357298474 379.30623638344224 L 123.765290486565 368.63284132171384 L 123.08091684822077 344.7116693899782 L 122.87879538852577 305.0782670660857 L 142.88875272331154 304.88323801742916 L 143.03059186637617 300.9720234204793 L 149.60128994190268 300.8301842774146 L 149.57292211328976 293.11413489469857 L 149.54455428467682 291.3021405228758 L 149.50200254175743 288.4405355846042 L 145.44540305010892 288.507908496732 L 145.44540305010892 285.3200744371823 L 134.67272058823528 285.2136946259985 L 134.14082334785766 276.90901325344953 L 118.8541103848947 279.57558914306463 L 99.40796296296296 279.6748765432099 L 99.36895787944808 280.3663416848221 L 88.61400508351488 278.6890940450254 L 83.8872149600581 278.0472721496006 L 83.36241013071896 282.74214778503995 L 76.10733841684822 282.9690904139434 L 75.73855664488018 249.53405864197532 L 71.76706063907044 249.69717320261435 L 71.69614106753812 248.0695697167756 L 71.26353122730573 246.77174110384894 L 69.69975490196079 246.96677015250546 L 67.98704702251271 247.1050635439361 L 67.53316176470588 243.74702160493828 L 56.55835875090777 245.0483950617284 L 59.47669843863471 260.2110003631082 L 60.57240559186638 260.1755401234568 L 59.80292846768337 286.3519535221496 L 44.56231299927378 286.4902469135802 L 44.42047385620915 279.1855310457516 L 25.875005446623092 279.53303740014525 Z M 22.01343500363108 295.2062627087872" ns1:label="obstacle" />
<ns0:path style="fill-rule:evenodd;fill:rgb(85.098039%,81.568627%,78.823529%);fill-opacity:1;stroke-width:0.75;stroke-linecap:butt;stroke-linejoin:miter;stroke:rgb(72.54902%,66.27451%,61.176471%);stroke-opacity:1;stroke-miterlimit:4;" d="M 378.8984486201888 341.0273974219317 L 379.07929375453887 350.3604130355846 L 379.2743228031954 360.1792283950617 L 388.42294753086423 368.84914578794485 L 403.5890976761075 368.48036401597676 L 403.73448257080605 374.4837055192447 L 408.3938988743646 374.363142701525 L 408.25205973129994 368.370438453159 L 410.5994970951343 368.43426652142335 L 410.5924055918664 373.019216594045 L 411.72357298474947 374.363142701525 L 414.2305791575889 374.363142701525 L 415.43975853304283 373.27098039215684 L 415.4468500363108 368.576105664488 L 421.58139251997096 368.56546750181553 L 422.22676107480027 368.56546750181553 L 439.0949809368191 368.63284132171384 L 445.41391521423384 362.2465332244008 L 453.7292347494553 353.73973129992737 L 457.4950635439361 353.55533950617286 L 458.5340359477124 352.50572984749454 L 464.28206699346407 346.69387164124913 L 464.31752723311547 344.9279738562091 L 467.44507988380536 344.9386120188816 L 467.402528140886 334.3290441176471 L 461.4381917211329 334.2864923747277 L 459.79995007262164 334.26521604938273 L 453.5342057007988 329.0739034132171 L 453.4845624546115 319.7728022875817 L 453.29662490922294 304.0286574074074 L 443.0061955337691 304.08184640522876 L 440.2970679012346 306.3016294480755 L 415.8014478939724 306.49665849673204 L 411.507267610748 302.432966594045 L 411.2129520697168 300.2131844589688 L 408.8477841321714 300.19190813362377 L 401.5501597676107 300.11389705882357 L 401.26293572984747 301.3727196804648 L 391.022149600581 301.663489469862 L 388.2208260711692 303.592501815541 L 387.9974301016703 304.75203703703704 L 387.66765432098765 306.49665849673204 L 387.8449527959332 320.8046822803195 L 387.7527578068264 332.9212908496732 Z M 378.8984486201888 341.0273974219317" ns1:label="obstacle" />
<ns0:path style="fill-rule:evenodd;fill:rgb(85.098039%,81.568627%,78.823529%);fill-opacity:1;stroke-width:0.75;stroke-linecap:butt;stroke-linejoin:miter;stroke:rgb(72.54902%,66.27451%,61.176471%);stroke-opacity:1;stroke-miterlimit:4;" d="M 21.31133079157589 210.6240359477124 L 26.722494553376904 226.28662309368192 L 48.61891249092229 226.0596804647785 L 51.17556281771968 226.03840413943354 L 51.15428649237473 229.63402687000726 L 71.28480755265069 229.55956063907044 L 71.33799745824255 226.90362291212782 L 77.4299881989833 225.8965649963689 L 85.27014705882353 224.60582879448074 L 85.28433097313 223.30445533769063 L 121.31501906318083 222.09173021060275 L 121.30083514887436 219.1769353667393 L 121.26537581699345 211.60272512708787 L 121.24409949164851 207.0709649600581 L 118.33285130718954 207.09224037763252 L 118.2335639070443 202.03212962962962 L 98.96117011619462 202.25907225853305 L 98.87252087872186 205.85824074074074 L 96.01446169208424 205.9007915758896 L 95.3371804647785 146.36735748002906 L 94.51451343500362 112.30114197530864 L 88.85158496732026 112.5068082788671 L 88.78066539578795 110.63453159041394 L 88.71329157588961 108.86508805374001 L 88.6069126724764 105.97156953522149 L 80.88377087872186 107.72682915758897 L 77.90869553376906 108.40056463326071 L 80.00436819172113 121.14481209150327 L 80.77384622367465 147.743197167756 L 80.84122004357299 152.49126270878722 L 81.23482298474946 187.55035312273057 L 81.24900689905591 188.9261928104575 L 61.593647421931735 189.34107207697895 L 61.593647421931735 193.58915395787943 L 41.96311002178649 193.79482116920843 L 41.96311002178649 214.13810003631082 L 39.785879629629626 214.20192810457516 L 38.871016702977485 210.5495697167756 L 34.3463489469862 210.57084604212054 Z M 21.31133079157589 210.6240359477124" ns1:label="obstacle" />
<ns0:path style="fill-rule:evenodd;fill:rgb(85.098039%,81.568627%,78.823529%);fill-opacity:1;stroke-width:0.75;stroke-linecap:butt;stroke-linejoin:miter;stroke:rgb(72.54902%,66.27451%,61.176471%);stroke-opacity:1;stroke-miterlimit:4;" d="M 291.58936456063907 154.79969498910674 L 292.5325944081336 208.08866103848948 L 292.6637962962963 215.14515795206972 L 292.96520424836604 232.4743554829339 L 297.58206790123455 232.38925199709513 L 302.44715050835146 232.30060275962236 L 311.11352214960056 232.15167120551925 L 352.1334023238925 231.42474582425564 L 351.98092592592593 224.44271423384168 L 351.7788044662309 209.63825344952795 L 351.70788489469857 207.26599400871459 L 317.0672204066812 207.8829938271605 L 317.00693899782135 204.61005628177196 L 316.44667392883076 172.89836964415395 L 323.15566539578793 172.81326615831517 L 328.57037490922295 172.6820642701525 L 328.05975399419026 149.95234204793027 L 328.00301833696443 141.8675108932462 L 327.87181735657225 132.01678286129265 L 327.51367283950617 112.94296387073348 L 308.9682053376906 113.26564814814814 L 309.4788262527233 142.1299128540305 L 309.50719408133625 147.87439905591867 L 309.7022231299928 154.4734649600581 Z M 291.58936456063907 154.79969498910674" ns1:label="obstacle" />
<ns0:path style="fill-rule:evenodd;fill:rgb(85.098039%,81.568627%,78.823529%);fill-opacity:1;stroke-width:0.75;stroke-linecap:butt;stroke-linejoin:miter;stroke:rgb(72.54902%,66.27451%,61.176471%);stroke-opacity:1;stroke-miterlimit:4;" d="M 129.04879811183733 53.980432098765434 L 129.1764533405955 62.62907407407407 L 129.19772966594044 64.35241920842411 L 153.3493899782135 63.99782135076253 L 153.49477487291213 73.92301561365286 L 129.46367828612927 74.28115922294843 L 129.6728903413217 88.75229756717502 L 129.81118373275237 97.98602578068264 L 130.3359885620915 132.96001270878722 L 188.0787037037037 132.10188634713145 L 187.86949074074073 118.02435094408133 L 187.57872095134348 99.01436002178649 L 162.4696459694989 99.38314179375453 L 162.30653140885983 88.0253721859114 L 187.35532407407408 87.65659041394335 L 186.85179557007987 53.13648874364561 L 159.94136347131445 53.5265468409586 Z M 140.73988925199708 98.59238834422658 L 154.2855283224401 98.40799745824255 L 154.45928104575162 111.3472730573711 L 140.91364288307915 111.52102578068265 Z M 156.12943718228033 64.06164851125635 L 178.94071713870733 63.74605664488018 L 179.07191811909948 73.46913035584603 L 156.26063816267248 73.82727396514161 Z M 165.12203885257807 114.92516521423384 L 180.8945515613653 114.54574618736383 L 181.09667211328977 123.00999636891794 L 165.32415940450252 123.38941630355846 Z M 165.12203885257807 114.92516521423384" ns1:label="obstacle" />
<ns0:path style="fill-rule:evenodd;fill:rgb(85.098039%,81.568627%,78.823529%);fill-opacity:1;stroke-width:0.75;stroke-linecap:butt;stroke-linejoin:miter;stroke:rgb(72.54902%,66.27451%,61.176471%);stroke-opacity:1;stroke-miterlimit:4;" d="M 182.18174110384894 235.9990577342048 L 182.550522875817 260.6329711328976 L 183.75970225127088 260.6116957153232 L 183.7845234204793 261.6932189542484 L 185.6922603485839 261.6719426289034 L 185.67807643427741 260.64360929557006 L 191.8729012345679 260.54432189542484 L 191.90126906318082 262.72509894698624 L 199.07123729121278 262.6151733841685 L 199.0570533769063 261.50882806826434 L 216.47844589687728 261.24997185911405 L 218.03513071895424 261.22869553376904 L 218.0209468046478 259.99114923747277 L 220.59887345679013 259.9485974945534 L 220.62014887436456 261.3598965141612 L 223.34346042120552 261.3137990196078 L 227.5312618010167 261.2606100217865 L 227.50998547567175 259.64718954248366 L 233.12326978939726 259.5691775599128 L 233.00625272331155 252.50204248366012 L 232.69775236020337 231.28290668119098 L 244.50586056644877 231.10915395787944 L 244.26828068264342 215.58840595497458 L 244.05197530864194 201.28392792302105 L 236.58769063180827 201.39030682643428 L 236.55932280319536 199.61377178649238 L 212.97856572258533 199.97191539578793 L 212.99984114015976 201.31584150326796 L 204.85118191721133 201.43640522875816 L 193.71681009440812 201.6101579520697 L 193.80545933188088 207.51421205519244 L 182.80228758169935 207.67732752360203 L 182.9263970588235 215.82953159041395 L 184.57527687000726 215.79407225853305 L 184.87668482207698 235.9529602396514 Z M 182.18174110384894 235.9990577342048" ns1:label="obstacle" />
<ns0:path style="fill-rule:evenodd;fill:rgb(85.098039%,81.568627%,78.823529%);fill-opacity:1;stroke-width:0.75;stroke-linecap:butt;stroke-linejoin:miter;stroke:rgb(72.54902%,66.27451%,61.176471%);stroke-opacity:1;stroke-miterlimit:4;" d="M 375.06524600580974 286.6639996368918 L 376.7885911401598 286.76328794480753 L 379.0048284313726 288.9830700798838 L 414.41851670297746 288.4405355846042 L 418.10633442265794 285.2136946259985 L 418.14179375453887 284.1711773783588 L 420.989214778504 284.2917401960784 L 428.42513162672475 291.43334150326797 L 452.0342574437182 290.95817992011615 L 458.79289215686276 284.08607389252 L 465.9770442992011 276.7813580246914 L 469.79606390704424 276.68207062454616 L 476.6327106027596 276.54377723311546 L 480.5793845315904 276.4551279956427 L 487.114623275236 276.32392701525055 L 490.6464179375454 276.0969843863471 L 490.6322340232389 269.6291194625999 L 490.61805010893244 263.9803749092229 L 487.4337608932462 264.03356481481484 L 480.36308006535944 263.9697367465505 L 476.51569353667395 263.9697367465505 L 469.34217864923744 263.95909949164854 L 463.8707334785766 263.785346768337 L 461.5232952069717 261.3811728395062 L 459.29642156862747 261.29252360203344 L 459.00919662309366 222.8824836601307 L 453.05195261437905 216.72666485112563 L 442.5310348583878 216.68411310820625 L 442.46720679012344 231.0027741466957 L 445.38554738562095 230.98859023238924 L 445.34299564270157 233.87501724763982 L 448.89251997095135 233.8962926652142 L 448.83578431372547 235.24021877269425 L 441.7970170660857 235.1941212781409 L 441.78283315177924 240.22586419753085 L 442.94236746550473 240.2471405228758 L 442.8998166303558 242.80379084967316 L 444.13027051561363 244.02715323166302 L 449.19038217138706 244.07325163398696 L 449.19038217138706 245.34980392156865 L 445.22597857661583 245.34980392156865 L 445.6231281771968 261.6719426289034 L 449.93858387799565 261.54428830791574 L 449.9102160493827 262.60453522149595 L 448.6265713507625 262.60453522149595 L 448.59820352214956 264.9874328249818 L 450.1336129266521 264.9448810820624 L 450.1336129266521 267.05828431372544 L 448.9279793028322 267.1150199709513 L 446.06282861292664 269.9305274146696 L 443.05583877995645 272.88078159041396 L 429.662677923021 272.79213144517064 L 429.64140250544665 271.42692992011615 L 428.25137890341324 270.1787454611474 L 425.52806735657225 270.21420570079886 L 425.5067910312273 269.0759458968773 L 420.5424210239651 269.1397739651416 L 420.62043300653596 273.36658042846767 L 417.09927559912853 273.40913217138706 L 417.0709077705156 271.7531599491648 L 407.40102487291216 262.3350408496732 L 389.3732697893973 262.31376543209876 L 384.7209458968773 267.6327332970225 L 375.61132716049383 267.34196259985475 Z M 375.06524600580974 286.6639996368918" ns1:label="obstacle" />
<ns0:path style="fill-rule:evenodd;fill:rgb(85.098039%,81.568627%,78.823529%);fill-opacity:1;stroke-width:0.75;stroke-linecap:butt;stroke-linejoin:miter;stroke:rgb(72.54902%,66.27451%,61.176471%);stroke-opacity:1;stroke-miterlimit:4;" d="M 338.5345751633987 386.69605573710965 L 338.6515922294844 395.3907952069717 L 338.68705156136525 398.4687046114742 L 338.6941439724038 398.89067628903416 L 338.7012354756717 399.0963425925926 L 338.75087962962965 403.22386165577336 L 338.76860929557006 404.26637981118375 L 338.8395288671024 410.2697213144517 L 345.374767610748 410.181072076979 L 346.55557824981844 410.17043391430644 L 351.4171151053014 410.1066067538126 L 351.76462055192445 410.09596859114015 L 356.1226289034132 410.0427786855483 L 358.8813997821351 410.0108651053014 L 359.11188816267247 410.0108651053014 L 360.02675108932465 410.0002269426289 L 364.0549827523602 409.94349128540307 L 363.94860294117643 401.8799364560639 L 363.9415114379085 401.4260511982571 L 363.90605119825705 398.53253267973855 L 363.8989596949891 397.8268827160494 L 363.8599537037037 395.12839324618733 L 363.84576978939725 393.85184095860564 L 383.0401515976761 393.60007625272334 L 383.270640885984 393.60007625272334 L 383.29900871459694 396.17091049382714 L 383.32028413217137 397.70986564996366 L 383.3521977124183 399.7878086419753 L 383.3663816267247 401.32676289034134 L 383.3734740377633 401.57852759622364 L 383.43730119825705 406.67055283224397 L 409.0286292665214 406.34786855482935 L 409.04990468409585 407.6563353304285 L 409.0640885984023 408.92579520697166 L 412.17036583151776 408.88324346405227 L 415.4326661220044 408.8371459694989 L 415.69506899055915 408.8371459694989 L 418.7481563180828 408.79459422657953 L 420.01052469135806 408.783956063907 L 422.4643418663762 408.75204248366015 L 423.27991648511255 408.7414043209876 L 427.55282135076254 408.6882153231663 L 430.91795479302834 408.6421169208424 L 433.8433868917937 408.599565177923 L 434.2015305010893 408.599565177923 L 434.332732389252 408.58892701525053 L 437.243980573711 408.5570134350036 L 437.58794026870004 408.5463761801017 L 440.54883260711694 408.5144616920842 L 440.89633805373995 408.5144616920842 L 441.0559077705156 408.50382352941176 L 444.27565541031225 408.4612726942629 L 447.62660584604214 408.41517429193897 L 447.78262890341324 408.42581245461145 L 450.99883079157587 408.3726225490196 L 454.5412636165577 408.3300708061002 L 460.0410766158315 408.2662436456064 L 460.91693355119827 408.24142156862746 L 467.7429420842411 408.16695624546117 L 467.66847676107477 402.5855855119825 L 467.63301652142343 400.1353140885984 L 467.63301652142343 399.713343318809 L 467.583373275236 396.0609849310094 L 467.55500544662306 393.77382897603485 L 467.5195452069717 390.9228622004357 L 467.5018155410312 389.6888616557734 L 460.7183587509078 389.77396514161217 L 456.62984567901236 389.83070079883805 L 456.6014778503994 387.66056190994914 L 456.566017610748 385.14646332607117 L 454.99514887436453 385.1571005809731 L 449.81447440087146 385.21383623819895 L 446.3004094045025 385.2670261437908 L 445.74369099491645 385.2776643064633 L 441.5097930283224 385.3627677923021 L 438.43188271604936 385.4088652868555 L 435.11639342774146 385.45141702977486 L 428.19464324618735 385.53652051561363 L 423.6983424110385 385.603894335512 L 422.38632988380533 385.6145324981845 L 421.9820887799564 385.59325617283946 L 420.01052469135806 385.63580791575885 L 416.8829711328976 385.67835965867823 L 415.98938453159036 385.69963598402325 L 412.4292220406681 385.74218772694263 L 408.99316902687 385.7989233841685 L 405.4330065359477 385.8414751270879 L 404.8940177923021 385.8521132897603 L 402.039505265069 385.8840268700073 L 398.6885548293391 385.9265786129267 L 394.53266884531587 385.9833142701525 L 389.01512527233115 386.0577795933188 L 387.8449527959332 386.0684177559913 L 383.17844498910677 386.1216067538126 L 379.7282080610022 386.1783424110385 L 376.512005265069 386.21025689905593 L 373.1185039941903 386.2528086419753 L 369.7640078068264 386.2953603848947 L 366.6009949164851 386.34145787944806 L 363.45925835148876 386.38400962236744 L 360.0196586782861 386.42656136528683 L 356.20418572984744 386.4691131082062 L 353.04117283950615 386.5116648511256 L 351.45612018881627 386.5364869281046 L 351.3107352941176 386.54712418300653 L 350.51643609295564 386.65350399419026 L 345.06272149600585 386.62159041394335 Z M 338.5345751633987 386.69605573710965" ns1:label="obstacle" />
<ns0:path style="fill-rule:evenodd;fill:rgb(85.098039%,81.568627%,78.823529%);fill-opacity:1;stroke-width:0.75;stroke-linecap:butt;stroke-linejoin:miter;stroke:rgb(72.54902%,66.27451%,61.176471%);stroke-opacity:1;stroke-miterlimit:4;" d="M 127.3183605664488 235.37851216412494 L 127.87153322440086 241.08044571532318 L 129.26510348583878 248.300058097313 L 131.48133986928104 253.82469226579516 L 134.67272058823528 253.8034168482208 L 137.36057189542484 253.72895061728394 L 139.998779956427 253.71831336238202 L 140.1228894335512 261.3598965141612 L 143.47738562091502 261.30316085693534 L 143.57312636165577 262.21447803195355 L 156.73579883805374 264.10093863471315 L 159.12933460421206 247.38874183006536 L 155.2358496732026 246.70436728395057 L 155.06564270152506 236.47421931735656 L 155.0514596949891 235.59481663035584 L 161.07253086419752 235.32532225853305 L 161.05834694989107 213.82250816993465 L 154.696860929557 213.86505991285404 L 154.6614015976761 211.62400145243282 L 153.6153376906318 210.25879992737836 L 153.5869698620189 209.09926470588235 L 155.02663761801017 208.48935639070442 L 155.02663761801017 207.8298039215686 L 158.78182824981843 207.80852850399418 L 158.55133986928104 175.2387155047204 L 149.4027151416122 175.30608932461874 L 131.64090867828614 175.4337436456064 L 131.68346042120552 181.1144017792302 L 129.3289306463326 181.13567719680464 L 128.4069762164125 206.85466049382717 L 128.44243645606392 209.0744426289034 L 132.0735185185185 209.08508079157588 L 132.05933369644154 210.9715413943355 L 132.12316176470588 219.12374636891792 L 132.08770152505446 220.06697621641248 L 132.16571350762527 228.98511256354394 L 131.96713870733478 229.48509531590415 L 130.66221859114015 229.50637164124907 L 127.35382080610022 229.48509531590415 Z M 127.3183605664488 235.37851216412494" ns1:label="obstacle" />
<ns0:path style="fill-rule:evenodd;fill:rgb(85.098039%,81.568627%,78.823529%);fill-opacity:1;stroke-width:0.75;stroke-linecap:butt;stroke-linejoin:miter;stroke:rgb(72.54902%,66.27451%,61.176471%);stroke-opacity:1;stroke-miterlimit:4;" d="M 307.41152051561363 465.7784694989106 L 307.4257044299201 470.47334604212057 L 307.4398883442266 472.55128903413214 L 307.4398883442266 472.8562436456064 L 307.4469807552651 474.63277868554826 L 307.4966240014524 485.4621968046478 L 307.54981390704427 495.94056372549016 L 307.56399782135077 500.2311982570807 L 345.768371459695 500.0574446259986 L 345.74709513435005 495.8980119825708 L 345.7187273057371 489.4904284676834 L 345.70454339143066 485.6572258533043 L 345.6478077342048 472.8987944807552 L 345.6407153231663 472.3349845679012 L 345.63362381989833 470.278316993464 L 345.6549001452433 470.278316993464 L 345.63362381989833 465.7784694989106 L 345.57688816267245 452.79664215686273 L 338.63740831517794 452.82855664488017 L 326.0208160856935 452.8817456427015 L 316.15235838779955 452.9278431372549 L 316.1949092229484 465.75719408133625 L 307.71292846768335 465.79974582425564 Z M 307.41152051561363 465.7784694989106" ns1:label="obstacle" />
<ns0:path style="fill-rule:evenodd;fill:rgb(85.098039%,81.568627%,78.823529%);fill-opacity:1;stroke-width:0.75;stroke-linecap:butt;stroke-linejoin:miter;stroke:rgb(72.54902%,66.27451%,61.176471%);stroke-opacity:1;stroke-miterlimit:4;" d="M 160.55481844589687 288.2809658678286 L 160.59736928104576 291.1532089687727 L 160.62573710965867 292.9510203340596 L 160.90586964415397 307.6455555555556 L 160.9661510530138 313.1524600580973 L 178.1357797748729 312.78367828612926 L 178.2279756717502 311.2872748729121 L 182.5788907044299 311.24472403776326 L 182.81647149600582 314.9183569353667 L 196.5855065359477 314.9183569353667 L 202.33708333333334 293.6105718954248 L 197.45781681190994 293.8516984386347 L 197.22023602033406 288.52918482207696 L 197.0961274509804 276.8132716049383 L 164.08306644880173 277.8096913580247 L 164.04760711692083 287.9760121641249 Z M 160.55481844589687 288.2809658678286" ns1:label="obstacle" />
<ns0:path style="fill-rule:evenodd;fill:rgb(85.098039%,81.568627%,78.823529%);fill-opacity:1;stroke-width:0.75;stroke-linecap:butt;stroke-linejoin:miter;stroke:rgb(72.54902%,66.27451%,61.176471%);stroke-opacity:1;stroke-miterlimit:4;" d="M 160.0051915395788 338.4494716775599 L 160.33142156862743 373.58302650689905 L 165.44472222222223 373.55111292665214 L 168.84886165577342 373.47664760348584 L 180.08606753812637 373.3879983660131 L 179.9442283950617 357.9133478576616 L 173.40899055918663 357.9771750181554 L 173.3735303195352 353.94539760348584 L 182.7100925925926 353.8602941176471 L 182.56470679012347 337.82892519970954 L 177.30602033405955 337.8856608569354 L 177.25637708787218 332.3362037037037 L 185.12135802469135 332.25819262890343 L 185.01497821350762 320.4997276688453 L 162.90934822076977 320.69475671750183 L 163.012181372549 331.825582788671 L 165.16458968772693 331.80430737109657 L 165.2213253449528 338.403373275236 Z M 160.0051915395788 338.4494716775599" ns1:label="obstacle" />
<ns0:path style="fill-rule:evenodd;fill:rgb(85.098039%,81.568627%,78.823529%);fill-opacity:1;stroke-width:0.75;stroke-linecap:butt;stroke-linejoin:miter;stroke:rgb(72.54902%,66.27451%,61.176471%);stroke-opacity:1;stroke-miterlimit:4;" d="M 404.90110929557005 86.91902687000726 L 404.915294117647 92.55358660130719 L 404.94366194625997 93.45426561365286 L 404.9649373638344 94.35494371822803 L 405.02876543209874 100.98592411038489 L 409.08536492374725 100.95401053013798 L 414.0497349310094 100.84763071895425 L 414.4823438634713 100.83699255628177 L 419.12402959331877 100.79089506172839 L 419.0070125272331 94.10317901234568 L 421.93953703703704 94.07126543209877 L 424.4110838779956 94.19182915758896 L 424.37562454611475 95.7201452432825 L 424.40399237472764 97.37966412490923 L 424.3968999636892 98.49310094408133 L 424.3968999636892 99.28385439360929 L 424.38980755265067 100.81217138707335 L 424.4181753812636 102.6879938271605 L 424.48200344952795 107.10982933914306 L 431.1413507625272 107.01408769063181 L 432.9710766158315 107.01408769063181 L 438.4673429557008 106.936075708061 L 438.41060729847493 103.02486201888162 L 438.41769970951344 102.62416575889615 L 438.3538716412491 100.89018246187364 L 438.3538716412491 99.95758986928105 L 438.36096405228756 97.28037581699347 L 438.36096405228756 96.35842229484386 L 438.3148656499637 94.18119099491648 L 438.30777414669575 93.56419026870007 L 438.2723139070443 91.76283405954975 L 438.26522240377636 90.0714015976761 L 438.24394607843135 88.38351579520697 L 438.22976216412485 87.62467683369644 L 444.5486964415396 87.53602759622368 L 444.4635929557008 81.58587509077705 L 444.4635929557008 79.79870188816267 L 444.3536673928831 73.39466412490923 L 440.1977805010893 73.45849219317357 L 437.2581644880174 73.49040577342048 L 434.8575363108206 73.52232026143791 L 430.26904048656496 73.56487109658678 L 430.3399600580973 80.11429375453885 L 427.9038725490196 80.17812182280319 L 425.20538307915757 80.19939724037764 L 425.12382534495276 75.56125726216412 L 425.0954575163398 72.73156681190994 L 425.06708968772693 71.32381263616557 L 425.03163035584606 67.27075980392156 L 418.1630700798838 67.36650145243283 L 416.3049763979666 67.36650145243283 L 411.0462908496732 67.4551506899056 L 411.1030265068991 71.19261165577342 L 411.110118010167 74.01166485112563 L 411.12430192447346 74.63930283224401 L 411.18458424110383 77.60728758169934 L 411.24841140159765 80.05755809731299 L 411.24841140159765 80.58945533769062 L 411.2413198983297 83.60353667392883 L 411.2413198983297 84.11061183732753 L 411.3335148874364 85.62829066811909 L 411.3476988017429 86.82328522149601 L 408.3300708061002 86.90838870733478 Z M 404.90110929557005 86.91902687000726" ns1:label="obstacle" />
<ns0:path style="fill-rule:evenodd;fill:rgb(85.098039%,81.568627%,78.823529%);fill-opacity:1;stroke-width:0.75;stroke-linecap:butt;stroke-linejoin:miter;stroke:rgb(72.54902%,66.27451%,61.176471%);stroke-opacity:1;stroke-miterlimit:4;" d="M 302.25921387073345 379.7069317356572 L 302.5251624909223 400.9828031953522 L 302.6350871459695 409.64208333333335 L 324.25491920842416 409.3690432098765 L 324.1627233115468 402.0004992737836 L 323.73011437908497 367.8846396151053 L 311.7908042846768 367.8846396151053 L 304.9541575889615 367.84917937545384 L 304.86196259985473 378.34173021060275 L 304.84777777777776 379.6750181554103 Z M 302.25921387073345 379.7069317356572" ns1:label="obstacle" />
<ns0:path style="fill-rule:evenodd;fill:rgb(85.098039%,81.568627%,78.823529%);fill-opacity:1;stroke-width:0.75;stroke-linecap:butt;stroke-linejoin:miter;stroke:rgb(72.54902%,66.27451%,61.176471%);stroke-opacity:1;stroke-miterlimit:4;" d="M 158.5371559549746 384.0755773420479 L 159.0761446986202 408.96834694989104 L 162.48383079157588 408.9045197893973 L 162.59375544662308 414.12774600580974 L 160.07256535947712 414.1809359114016 L 160.17894426289033 419.1559440813362 L 172.6146913580247 418.89708696441534 L 172.50831154684096 413.9433551198257 L 171.83102941176472 413.9539932824982 L 171.6856445170661 407.3762027959332 L 174.08627269426287 407.3336510530138 L 173.5721051198257 383.73870915032677 L 169.0864424473493 383.83799745824257 L 165.6858487654321 383.91246278140886 Z M 158.5371559549746 384.0755773420479" ns1:label="obstacle" />
<ns0:path style="fill-rule:evenodd;fill:rgb(85.098039%,81.568627%,78.823529%);fill-opacity:1;stroke-width:0.75;stroke-linecap:butt;stroke-linejoin:miter;stroke:rgb(72.54902%,66.27451%,61.176471%);stroke-opacity:1;stroke-miterlimit:4;" d="M 424.8720606390704 31.19751997095134 L 425.18765341321716 45.88496278140886 L 433.55970860566447 45.711210058097315 L 433.545524691358 45.05165758896151 L 437.60212418300654 44.963008351488746 L 442.5097585330428 44.86726670297749 L 442.46720679012344 43.99850217864924 L 450.3038198983297 43.881485112563546 L 450.0662391067538 28.79334604212055 L 442.22962599854753 28.913908859840234 L 442.243809912854 29.78976579520697 L 433.2441167392883 29.952881263616558 L 433.2441167392883 31.016674836601307 Z M 424.8720606390704 31.19751997095134" ns1:label="obstacle" />
<ns0:path style="fill-rule:evenodd;fill:rgb(85.098039%,81.568627%,78.823529%);fill-opacity:1;stroke-width:0.75;stroke-linecap:butt;stroke-linejoin:miter;stroke:rgb(72.54902%,66.27451%,61.176471%);stroke-opacity:1;stroke-miterlimit:4;" d="M 78.41222403776325 93.29115014524328 L 78.62143700072622 107.83675472040667 L 80.88377087872186 107.72682915758897 L 88.6069126724764 105.97156953522149 L 88.71329157588961 108.86508805374001 L 94.15282316630356 108.73743282498184 L 93.91524237472767 93.0535693536674 Z M 78.41222403776325 93.29115014524328" ns1:label="obstacle" />
<ns0:path style="fill-rule:evenodd;fill:rgb(85.098039%,81.568627%,78.823529%);fill-opacity:1;stroke-width:0.75;stroke-linecap:butt;stroke-linejoin:miter;stroke:rgb(72.54902%,66.27451%,61.176471%);stroke-opacity:1;stroke-miterlimit:4;" d="M 62.67517156862745 143.84262073347858 L 62.870199709513436 158.11518518518517 L 76.40874636891793 157.92015613652868 L 76.33782679738562 152.55509077705156 L 80.84122004357299 152.49126270878722 L 80.77384622367465 147.743197167756 L 76.66760257806827 147.79638707334786 L 76.61086692084241 143.6475925925926 Z M 62.67517156862745 143.84262073347858" ns1:label="obstacle" />
<ns0:path style="fill-rule:evenodd;fill:rgb(85.098039%,81.568627%,78.823529%);fill-opacity:1;stroke-width:0.75;stroke-linecap:butt;stroke-linejoin:miter;stroke:rgb(72.54902%,66.27451%,61.176471%);stroke-opacity:1;stroke-miterlimit:4;" d="M 121.24409949164851 207.0709649600581 L 121.26537581699345 211.60272512708787 L 121.30083514887436 219.1769353667393 L 132.12316176470588 219.12374636891792 L 132.05933369644154 210.9715413943355 L 132.0735185185185 209.08508079157588 L 128.44243645606392 209.0744426289034 L 127.17297567175018 209.10990286855483 L 127.16588416848221 207.03905137981118 Z M 121.24409949164851 207.0709649600581" ns1:label="obstacle" />
<ns0:path style="fill-rule:evenodd;fill:rgb(85.098039%,81.568627%,78.823529%);fill-opacity:1;stroke-width:0.75;stroke-linecap:butt;stroke-linejoin:miter;stroke:rgb(72.54902%,66.27451%,61.176471%);stroke-opacity:1;stroke-miterlimit:4;" d="M 149.50200254175743 288.4405355846042 L 149.54455428467682 291.3021405228758 L 149.57292211328976 293.11413489469857 L 160.62573710965867 292.9510203340596 L 160.59736928104576 291.1532089687727 L 160.55481844589687 288.2809658678286 Z M 149.50200254175743 288.4405355846042" ns1:label="obstacle" />
<ns0:path style="fill-rule:evenodd;fill:rgb(85.098039%,81.568627%,78.823529%);fill-opacity:1;stroke-width:0.75;stroke-linecap:butt;stroke-linejoin:miter;stroke:rgb(72.54902%,66.27451%,61.176471%);stroke-opacity:1;stroke-miterlimit:4;" d="M 357.59420933188085 342.6195424836601 L 357.62966957153236 345.6229856572258 L 364.47340777051556 345.53433641975306 L 364.43794843863475 342.5344389978213 Z M 357.59420933188085 342.6195424836601" ns1:label="obstacle" />
<ns0:path style="fill-rule:evenodd;fill:rgb(85.098039%,81.568627%,78.823529%);fill-opacity:1;stroke-width:0.75;stroke-linecap:butt;stroke-linejoin:miter;stroke:rgb(72.54902%,66.27451%,61.176471%);stroke-opacity:1;stroke-miterlimit:4;" d="M 393.4298692810458 183.9760067175018 L 393.47951252723306 187.8446695715323 L 397.36235929557006 187.79147966594044 L 397.36235929557006 184.0185584604212 Z M 393.4298692810458 183.9760067175018" ns1:label="obstacle" />
<ns0:path style="fill-rule:evenodd;fill:rgb(85.098039%,81.568627%,78.823529%);fill-opacity:1;stroke-width:0.75;stroke-linecap:butt;stroke-linejoin:miter;stroke:rgb(72.54902%,66.27451%,61.176471%);stroke-opacity:1;stroke-miterlimit:4;" d="M 298.11041938997823 329.7334558823529 L 301.6776733841685 329.8008297022513 L 301.6528513071895 332.7049854756717 L 301.6032080610022 339.7366612200435 L 301.5606563180828 346.38182552650693 L 301.51101216412485 353.5978921568627 L 301.4897367465505 356.84955428467686 L 301.4613689179376 361.0125326797385 L 304.82295660856937 361.0125326797385 L 304.93997367465505 366.9945987654321 L 304.9541575889615 367.84917937545384 L 304.86196259985473 378.34173021060275 L 304.84777777777776 379.6750181554103 L 302.25921387073345 379.7069317356572 L 302.5251624909223 400.9828031953522 L 302.6350871459695 409.64208333333335 L 324.25491920842416 409.3690432098765 L 324.1627233115468 402.0004992737836 L 323.73011437908497 367.8846396151053 L 323.8825907770516 360.21114197530864 L 320.3862563543936 360.0905782498184 L 320.40753267973855 359.299825708061 L 320.428808097313 356.61197349310095 L 313.13118373275233 356.58005991285404 L 313.13118373275233 354.1510639070443 L 315.7552087872186 353.9560357661583 L 315.4963516702977 326.27612654320984 L 315.38642701525055 322.84007352941177 L 315.3155065359477 319.90400326797385 L 318.37568627450975 319.89336510530137 L 318.4075998547567 321.13091140159764 L 321.2089233841685 321.2798429557008 L 331.9496922657952 321.2160148874365 L 331.94260076252726 320.21959513435 L 337.90339052287584 320.1876815541031 L 337.9175744371823 322.80815994916486 L 341.62666848220766 322.78688362381985 L 352.36389070442993 322.6556826434277 L 352.34261528685545 320.92169934640526 L 358.6225435729848 320.8472331154684 L 358.69700889615103 326.85057552650693 L 380.951570442992 326.5385294117647 L 380.88774328249815 320.8897857661583 L 387.8449527959332 320.8046822803195 L 387.66765432098765 306.49665849673204 L 383.04724400871464 306.6172213144517 L 364.22164306463327 307.081744734931 L 364.25710330428467 303.8442665214234 L 353.3283968772694 303.7556172839506 L 346.2683542120552 303.69178921568624 L 337.8962981118373 303.62441539578793 L 337.95303376906315 308.2767392883079 L 301.5181045751634 308.64552106027594 L 301.48264433551196 311.38656318082786 L 301.43300108932465 314.985730755265 L 298.1458787218591 314.8864433551198 L 298.12460239651415 322.0812345679012 Z M 298.11041938997823 329.7334558823529" ns1:label="obstacle" />
<ns0:path style="fill-rule:evenodd;fill:rgb(85.098039%,81.568627%,78.823529%);fill-opacity:1;stroke-width:0.75;stroke-linecap:butt;stroke-linejoin:miter;stroke:rgb(72.54902%,66.27451%,61.176471%);stroke-opacity:1;stroke-miterlimit:4;" d="M 383.44439360929556 543.6587972040668 L 383.47985294117643 547.1799546114743 L 387.3697912127814 547.1374019607842 L 387.48680918663763 548.3926788307915 L 387.5506363471314 550.4209785766158 L 385.83792846768335 550.4209785766158 L 386.2386247276689 570.5018554829338 L 392.23487472766885 570.3281027596224 L 396.46522694262893 570.3174645969499 L 396.9474800290487 591.167818627451 L 417.56734567901236 590.9302378358751 L 417.0389941902687 556.5555210602759 L 406.45779411764704 556.3250326797386 L 405.312443718228 546.2579992737835 L 404.30893155410314 469.6471323529412 L 404.02879901960785 448.00602578068265 L 384.35925562817715 448.264881989833 L 384.63938816267245 469.88825889615106 L 385.52588235294115 543.5169580610022 Z M 383.44439360929556 543.6587972040668" ns1:label="obstacle" />
<ns0:path style="fill-rule:evenodd;fill:rgb(85.098039%,81.568627%,78.823529%);fill-opacity:1;stroke-width:0.75;stroke-linecap:butt;stroke-linejoin:miter;stroke:rgb(72.54902%,66.27451%,61.176471%);stroke-opacity:1;stroke-miterlimit:4;" d="M 327.87181735657225 132.01678286129265 L 328.00301833696443 141.8675108932462 L 338.1126034858388 141.739855664488 L 338.14097131445175 143.98091412490922 L 373.44473402323894 143.49511528685548 L 379.74948347857656 143.4064651416122 L 380.2884722222222 182.75973583877996 L 362.39191902686997 183.0115005446623 L 362.75360838779955 209.49996005809732 L 351.7788044662309 209.63825344952795 L 351.98092592592593 224.44271423384168 L 355.82122004357296 224.38952432824982 L 361.0940904139433 224.3150590050835 L 361.5266993464052 255.441658496732 L 362.7819762164125 255.43102033405955 L 362.9379992737836 267.5157153231663 L 369.68954248366015 267.4164288307916 L 375.61132716049383 267.34196259985475 L 375.5049473493101 259.7003794480755 L 375.4482116920842 255.29981935366737 L 375.33828612926646 247.15116103848948 L 380.85937545388526 247.07314905591863 L 380.8061855482934 243.32504992737836 L 375.23899872912125 243.39951525054462 L 374.742561728395 206.89721223674655 L 374.59717683369644 196.6670642701525 L 393.6036220043573 196.40466140159768 L 393.47951252723306 187.8446695715323 L 393.4298692810458 183.9760067175018 L 392.68875998547566 129.75090232389252 L 376.1751370733478 129.96720679012344 L 338.2686265432099 130.4884658678286 L 338.2899019607843 131.87494371822802 L 331.06319807552654 131.97423021060277 Z M 327.87181735657225 132.01678286129265" ns1:label="obstacle" />
<ns0:path style="fill-rule:evenodd;fill:rgb(85.098039%,81.568627%,78.823529%);fill-opacity:1;stroke-width:0.75;stroke-linecap:butt;stroke-linejoin:miter;stroke:rgb(72.54902%,66.27451%,61.176471%);stroke-opacity:1;stroke-miterlimit:4;" d="M 279.27772694262893 251.71128903413214 L 279.61459513435005 268.4234858387799 L 282.9939124909223 268.57596314451706 L 283.0435557371096 270.8843954248366 L 281.63934822076976 271.03687273057375 L 281.5967964778504 276.738806281772 L 287.5824083151779 282.7315096223674 L 289.74545570079886 282.8485275962237 L 291.3092320261438 282.7527859477124 L 291.5468128177197 290.6957779593319 L 295.3658315177923 294.46869916485116 L 298.2841721132898 294.500612745098 L 309.99653957879445 294.61053830791576 L 309.7093146332607 289.92629992737835 L 316.60624364560636 289.83055918663763 L 335.7332516339869 290.07877723311543 L 338.8749891067538 286.51152323892524 L 352.1475862381989 286.46897149600585 L 354.1120588235294 289.02916757443717 L 365.5052877632534 288.73485112563543 L 368.8455991285403 286.76328794480753 L 375.06524600580974 286.6639996368918 L 375.61132716049383 267.34196259985475 L 369.68954248366015 267.4164288307916 L 362.9379992737836 267.5157153231663 L 362.21107389252 267.52635348583874 L 362.20398148148143 270.4092338416848 L 348.7399010530138 270.56880355846044 L 345.3073937908497 267.7426579520697 L 316.04243282498186 267.80648602033403 L 313.3829484386347 265.2498356935367 L 311.23763162672475 263.17898420479304 L 311.11352214960056 232.15167120551925 L 302.44715050835146 232.30060275962236 L 302.80174836601304 244.32146968046476 L 286.5257071532317 244.7540795206972 Z M 279.27772694262893 251.71128903413214" ns1:label="obstacle" />
<ns0:path style="fill-rule:evenodd;fill:rgb(85.098039%,81.568627%,78.823529%);fill-opacity:1;stroke-width:0.75;stroke-linecap:butt;stroke-linejoin:miter;stroke:rgb(72.54902%,66.27451%,61.176471%);stroke-opacity:1;stroke-miterlimit:4;" d="M 425.1592855846042 178.12159586056646 L 425.5351588598402 190.91194081336238 L 433.935582788671 190.7807389251997 L 433.68381808278866 184.33415032679738 L 441.7686492374728 176.2918709150327 L 452.5519698620189 176.30250907770514 L 453.2008841684822 209.7694544299201 L 461.66868100944083 209.79073075526506 L 460.95593863471316 166.14682643427741 L 435.9461519607843 166.62198710965868 Z M 425.1592855846042 178.12159586056646" ns1:label="obstacle" />
<ns0:path style="fill-rule:evenodd;fill:rgb(85.098039%,81.568627%,78.823529%);fill-opacity:1;stroke-width:0.75;stroke-linecap:butt;stroke-linejoin:miter;stroke:rgb(72.54902%,66.27451%,61.176471%);stroke-opacity:1;stroke-miterlimit:4;" d="M 425.6273547567175 195.61390795206972 L 426.407470043573 231.05596405228758 L 442.46720679012344 231.0027741466957 L 442.5310348583878 216.68411310820625 L 434.1589787581699 216.64156136528686 L 434.03841594045025 195.51816630355844 Z M 425.6273547567175 195.61390795206972" ns1:label="obstacle" />
<ns0:path style="fill-rule:evenodd;fill:rgb(85.098039%,81.568627%,78.823529%);fill-opacity:1;stroke-width:0.75;stroke-linecap:butt;stroke-linejoin:miter;stroke:rgb(72.54902%,66.27451%,61.176471%);stroke-opacity:1;stroke-miterlimit:4;" d="M 165.44472222222223 373.55111292665214 L 165.6858487654321 383.91246278140886 L 169.0864424473493 383.83799745824257 L 168.84886165577342 373.47664760348584 Z M 165.44472222222223 373.55111292665214" ns1:label="obstacle" />
<line x1="0" y1="10" x2="100" y2="10" style="stroke:rgb(0,0,0);stroke-width:2" /><line x1="100" y1="10" x2="200" y2="10" style="stroke:rgb(100%,100%,100%);stroke-width:2" /><line x1="200" y1="10" x2="300" y2="10" style="stroke:rgb(0,0,0);stroke-width:2" /><line x1="300" y1="10" x2="400" y2="10" style="stroke:rgb(100%,100%,100%);stroke-width:2" /><line x1="400" y1="10" x2="500" y2="10" style="stroke:rgb(0,0,0);stroke-width:2" /><line x1="500" y1="10" x2="600" y2="10" style="stroke:rgb(100%,100%,100%);stroke-width:2" /><text x="10" y="30" style="font-size:12px">100 m</text></svg>