<svg xmlns:ns0="http://www.w3.org/2000/svg" viewBox="0 0 1094 961" xmlns="http://www.w3.org/2000/svg"><ns0:path d="M 510.671875 507.878906 L 511.664062 559.324219 L 512.738281 613.457031 L 563.183594 661.257812 L 646.796875 659.222656 L 647.589844 692.324219 L 673.289062 691.667969 L 672.496094 658.628906 L 685.445312 658.984375 L 685.40625 684.257812 L 691.640625 691.667969 L 705.464844 691.667969 L 712.136719 685.632812 L 712.175781 659.761719 L 745.980469 659.703125 L 749.554688 659.703125 L 842.542969 660.0625 L 877.378906 624.867188 L 923.21875 577.964844 L 943.992188 576.949219 L 949.710938 571.152344 L 981.410156 539.128906 L 981.605469 529.386719 L 998.847656 529.449219 L 998.609375 470.953125 L 965.71875 470.714844 L 956.703125 470.59375 L 922.144531 441.972656 L 921.867188 390.707031 L 920.832031 303.890625 L 864.113281 304.191406 L 849.175781 316.4375 L 714.125 317.515625 L 690.449219 295.109375 L 688.820312 282.859375 L 675.792969 282.738281 L 635.554688 282.320312 L 633.964844 289.253906 L 577.523438 290.867188 L 562.070312 301.5 L 560.839844 307.894531 L 559.011719 317.515625 L 560.003906 396.382812 L 559.488281 463.183594 Z M 510.671875 507.878906 " style="fill-rule:evenodd;fill:rgb(85.098039%,81.568627%,78.823529%);fill-opacity:1;stroke-width:0.75;stroke-linecap:butt;stroke-linejoin:miter;stroke:rgb(72.54902%,66.27451%,61.176471%);stroke-opacity:1;stroke-miterlimit:4;" />
<ns0:path d="M 489.539062 208.171875 L 499.03125 208.707031 L 511.265625 220.957031 L 706.496094 217.96875 L 726.835938 200.164062 L 727.03125 194.429688 L 742.722656 195.085938 L 783.714844 234.460938 L 913.882812 231.832031 L 951.140625 193.949219 L 990.742188 153.679688 L 1011.796875 153.140625 L 1049.492188 152.363281 L 1071.257812 151.886719 L 1107.285156 151.167969 L 1126.75 149.914062 L 1126.667969 114.242188 L 1126.589844 83.113281 L 1109.035156 83.410156 L 1070.066406 83.050781 L 1048.855469 83.050781 L 1009.292969 82.992188 L 979.144531 82.035156 L 966.195312 68.773438 L 953.921875 68.292969 L 952.332031 -143.464844 L 919.484375 -177.402344 L 861.488281 -177.640625 L 861.132812 -98.710938 L 877.21875 -98.769531 L 876.980469 -82.875 L 896.5625 -82.757812 L 896.246094 -75.347656 L 857.4375 -75.585938 L 857.359375 -47.863281 L 863.753906 -47.742188 L 863.515625 -33.640625 L 870.308594 -26.890625 L 898.191406 -26.648438 L 898.191406 -19.597656 L 876.347656 -19.597656 L 878.53125 70.386719 L 902.324219 69.667969 L 902.164062 75.523438 L 895.09375 75.523438 L 894.933594 88.667969 L 903.394531 88.429688 L 903.394531 100.082031 L 896.761719 100.378906 L 880.953125 115.914062 L 864.390625 132.167969 L 790.546875 131.691406 L 790.429688 124.160156 L 782.761719 117.289062 L 767.746094 117.46875 L 767.628906 111.195312 L 740.261719 111.554688 L 740.699219 134.855469 L 721.273438 135.09375 L 721.113281 125.953125 L 667.808594 74.03125 L 568.425781 73.910156 L 542.765625 103.25 L 492.558594 101.636719 Z M 489.539062 208.171875 " style="fill-rule:evenodd;fill:rgb(85.098039%,81.568627%,78.823529%);fill-opacity:1;stroke-width:0.75;stroke-linecap:butt;stroke-linejoin:miter;stroke:rgb(72.54902%,66.27451%,61.176471%);stroke-opacity:1;stroke-miterlimit:4;" />
<ns0:path d="M 288.152344 759.664062 L 288.789062 807.582031 L 288.984375 824.550781 L 289.027344 826.882812 L 289.066406 828.015625 L 289.34375 850.78125 L 289.421875 856.515625 L 289.820312 889.617188 L 325.847656 889.140625 L 332.363281 889.082031 L 359.171875 888.722656 L 361.082031 888.664062 L 385.113281 888.363281 L 400.324219 888.183594 L 401.597656 888.183594 L 406.640625 888.125 L 428.84375 887.824219 L 428.25 843.371094 L 428.210938 840.863281 L 428.011719 824.910156 L 427.972656 821.027344 L 427.773438 806.148438 L 427.691406 799.097656 L 533.511719 797.722656 L 534.78125 797.722656 L 534.941406 811.882812 L 535.058594 820.367188 L 535.21875 831.839844 L 535.296875 840.324219 L 535.335938 841.699219 L 535.695312 869.78125 L 676.785156 867.988281 L 676.90625 875.21875 L 676.984375 882.210938 L 694.105469 881.96875 L 712.097656 881.730469 L 713.527344 881.730469 L 730.371094 881.492188 L 737.320312 881.433594 L 750.867188 881.253906 L 755.355469 881.195312 L 778.910156 880.894531 L 797.460938 880.65625 L 813.585938 880.417969 L 815.570312 880.417969 L 816.285156 880.355469 L 832.335938 880.179688 L 834.242188 880.117188 L 850.566406 879.9375 L 852.472656 879.9375 L 853.347656 879.878906 L 871.101562 879.640625 L 889.574219 879.402344 L 890.445312 879.460938 L 908.164062 879.164062 L 927.707031 878.921875 L 958.011719 878.566406 L 962.859375 878.445312 L 1000.476562 878.027344 L 1000.078125 847.257812 L 999.878906 833.753906 L 999.878906 831.421875 L 999.601562 811.285156 L 999.441406 798.679688 L 999.242188 782.964844 L 999.164062 776.15625 L 961.746094 776.632812 L 939.226562 776.929688 L 939.066406 764.980469 L 938.867188 751.121094 L 930.207031 751.179688 L 901.648438 751.476562 L 882.265625 751.777344 L 879.207031 751.835938 L 855.847656 752.3125 L 838.886719 752.554688 L 820.617188 752.792969 L 782.445312 753.269531 L 757.660156 753.628906 L 750.429688 753.6875 L 748.203125 753.570312 L 737.320312 753.808594 L 720.082031 754.046875 L 715.15625 754.167969 L 695.535156 754.40625 L 676.585938 754.703125 L 656.964844 754.941406 L 653.984375 755.003906 L 638.257812 755.183594 L 619.785156 755.421875 L 596.867188 755.71875 L 566.441406 756.136719 L 560.003906 756.199219 L 534.265625 756.496094 L 515.238281 756.796875 L 497.523438 756.976562 L 478.8125 757.214844 L 460.304688 757.453125 L 442.867188 757.691406 L 425.546875 757.929688 L 406.601562 758.167969 L 385.546875 758.410156 L 368.109375 758.648438 L 359.371094 758.765625 L 358.578125 758.828125 L 354.207031 759.425781 L 324.140625 759.246094 Z M 288.152344 759.664062 " style="fill-rule:evenodd;fill:rgb(85.098039%,81.568627%,78.823529%);fill-opacity:1;stroke-width:0.75;stroke-linecap:butt;stroke-linejoin:miter;stroke:rgb(72.54902%,66.27451%,61.176471%);stroke-opacity:1;stroke-miterlimit:4;" />
<ns0:path d="M 88.15625 721.125 L 89.625 838.414062 L 90.21875 886.152344 L 209.425781 884.660156 L 208.90625 844.03125 L 206.523438 655.9375 L 140.707031 655.9375 L 103.011719 655.757812 L 102.492188 713.597656 L 102.414062 720.945312 Z M 88.15625 721.125 " style="fill-rule:evenodd;fill:rgb(85.098039%,81.568627%,78.823529%);fill-opacity:1;stroke-width:0.75;stroke-linecap:butt;stroke-linejoin:miter;stroke:rgb(72.54902%,66.27451%,61.176471%);stroke-opacity:1;stroke-miterlimit:4;" />
<ns0:path d="M 393.214844 516.660156 L 393.414062 533.210938 L 431.148438 532.734375 L 430.949219 516.183594 Z M 393.214844 516.660156 " style="fill-rule:evenodd;fill:rgb(85.098039%,81.568627%,78.823529%);fill-opacity:1;stroke-width:0.75;stroke-linecap:butt;stroke-linejoin:miter;stroke:rgb(72.54902%,66.27451%,61.176471%);stroke-opacity:1;stroke-miterlimit:4;" />
<ns0:path d="M 65.273438 445.617188 L 84.9375 445.976562 L 84.816406 461.988281 L 84.539062 500.769531 L 84.300781 537.394531 L 84.023438 577.1875 L 83.90625 595.113281 L 83.746094 618.058594 L 102.296875 618.058594 L 102.929688 651.039062 L 103.011719 655.757812 L 102.492188 713.597656 L 102.414062 720.945312 L 88.15625 721.125 L 89.625 838.414062 L 90.21875 886.152344 L 209.425781 884.660156 L 208.90625 844.03125 L 206.523438 655.9375 L 207.359375 613.636719 L 188.09375 612.976562 L 188.210938 608.617188 L 188.332031 593.796875 L 148.09375 593.621094 L 148.09375 580.234375 L 162.554688 579.160156 L 161.121094 426.558594 L 160.527344 407.617188 L 160.128906 391.425781 L 177.011719 391.367188 L 177.171875 398.175781 L 192.621094 399.011719 L 251.847656 398.65625 L 251.808594 393.15625 L 284.65625 392.980469 L 284.734375 407.4375 L 305.191406 407.320312 L 364.378906 406.601562 L 364.257812 397.042969 L 398.894531 396.625 L 399.292969 429.726562 L 521.992188 427.992188 L 521.632812 396.863281 L 560.003906 396.382812 L 559.011719 317.515625 L 533.550781 318.171875 L 429.757812 320.742188 L 429.957031 302.875 L 369.699219 302.398438 L 330.773438 302.039062 L 284.617188 301.679688 L 284.933594 327.3125 L 84.0625 329.34375 L 83.863281 344.460938 L 83.585938 364.296875 L 65.472656 363.761719 L 65.355469 403.433594 Z M 65.273438 445.617188 " style="fill-rule:evenodd;fill:rgb(85.098039%,81.568627%,78.823529%);fill-opacity:1;stroke-width:0.75;stroke-linecap:butt;stroke-linejoin:miter;stroke:rgb(72.54902%,66.27451%,61.176471%);stroke-opacity:1;stroke-miterlimit:4;" />
<ns0:path d="M 229.363281 -644.421875 L 230.078125 -590.109375 L 285.808594 -590.824219 L 285.96875 -578.457031 L 480.601562 -581.144531 L 515.359375 -581.621094 L 518.335938 -364.664062 L 419.667969 -363.289062 L 421.65625 -217.257812 L 361.160156 -216.480469 L 362.273438 -134.859375 L 383.441406 -135.15625 L 412.519531 -135.578125 L 414.902344 36.027344 L 421.8125 35.96875 L 422.6875 102.589844 L 459.90625 102.054688 L 492.558594 101.636719 L 491.960938 59.511719 L 491.644531 35.25 L 491.046875 -9.679688 L 521.476562 -10.097656 L 521.195312 -30.773438 L 490.492188 -30.355469 L 487.75 -231.597656 L 486.957031 -288.003906 L 591.742188 -289.4375 L 591.066406 -336.640625 L 590.789062 -357.972656 L 586.699219 -656.910156 L 495.65625 -655.714844 L 286.683594 -652.847656 L 286.800781 -645.199219 L 246.960938 -644.660156 Z M 229.363281 -644.421875 " style="fill-rule:evenodd;fill:rgb(85.098039%,81.568627%,78.823529%);fill-opacity:1;stroke-width:0.75;stroke-linecap:butt;stroke-linejoin:miter;stroke:rgb(72.54902%,66.27451%,61.176471%);stroke-opacity:1;stroke-miterlimit:4;" />
<ns0:path d="M -38.554688 15.472656 L -36.691406 107.609375 L -18.058594 108.445312 L -17.78125 121.171875 L -25.527344 122.011719 L -25.765625 153.4375 L 7.242188 186.480469 L 19.160156 187.136719 L 27.777344 186.601562 L 29.089844 230.398438 L 50.140625 251.191406 L 66.226562 251.371094 L 130.816406 251.96875 L 129.226562 226.15625 L 167.238281 225.617188 L 272.699219 226.992188 L 290.019531 207.335938 L 363.183594 207.09375 L 374.03125 221.195312 L 436.828125 219.582031 L 455.257812 208.707031 L 489.539062 208.171875 L 492.558594 101.636719 L 459.90625 102.054688 L 422.6875 102.589844 L 418.675781 102.652344 L 418.636719 118.542969 L 344.398438 119.441406 L 325.488281 103.847656 L 164.140625 104.203125 L 149.484375 90.101562 L 137.648438 78.691406 L 136.972656 -92.375 L 89.1875 -91.539062 L 91.132812 -25.277344 L 1.402344 -22.886719 Z M -38.554688 15.472656 " style="fill-rule:evenodd;fill:rgb(85.098039%,81.568627%,78.823529%);fill-opacity:1;stroke-width:0.75;stroke-linecap:butt;stroke-linejoin:miter;stroke:rgb(72.54902%,66.27451%,61.176471%);stroke-opacity:1;stroke-miterlimit:4;" />
</svg>