<svg xmlns:ns0="http://www.w3.org/2000/svg" xmlns="http://www.w3.org/2000/svg" viewBox="0.0 0.0 1993.0 1870.0"><ns0:path style="fill-rule:evenodd;fill:rgb(85.098039%,81.568627%,78.823529%);fill-opacity:1;stroke-width:0.75;stroke-linecap:butt;stroke-linejoin:miter;stroke:rgb(72.54902%,66.27451%,61.176471%);stroke-opacity:1;stroke-miterlimit:4;" d="M 120.132812 1199.984375 L 188.726562 1197.945312 L 189.019531 1215.480469 L 297.914062 1213.046875 L 299.417969 1354.0 L 282.164062 1354.265625 L 281.664062 1323.269531 L 219.902344 1324.332031 L 221.257812 1388.808594 L 282.402344 1390.222656 L 282.136719 1371.359375 L 291.46875 1370.605469 L 299.59375 1369.988281 L 300.800781 1485.210938 L 325.265625 1486.363281 L 325.851562 1504.960938 L 356.851562 1504.339844 L 356.382812 1349.707031 L 356.058594 1243.160156 L 464.835938 1241.386719 L 464.246094 1228.988281 L 472.726562 1228.765625 L 475.433594 1387.523438 L 477.671875 1519.355469 L 502.136719 1518.554688 L 501.929688 1550.351562 L 544.175781 1543.621094 L 535.902344 1500.003906 L 533.105469 1402.269531 L 532.28125 1240.324219 L 614.035156 1239.527344 L 614.621094 1223.542969 L 641.46875 1222.964844 L 641.351562 1191.4375 L 641.234375 1184.039062 L 641.058594 1172.351562 L 624.484375 1172.617188 L 624.484375 1159.597656 L 580.472656 1159.152344 L 578.292969 1125.230469 L 515.824219 1136.125 L 436.367188 1136.523438 L 436.222656 1139.359375 L 392.269531 1132.496094 L 372.957031 1129.882812 L 370.808594 1149.058594 L 341.160156 1149.988281 L 339.660156 1013.371094 L 323.4375 1014.035156 L 323.144531 1007.394531 L 321.378906 1002.078125 L 314.992188 1002.875 L 307.984375 1003.453125 L 306.128906 989.722656 L 261.292969 995.039062 L 273.214844 1056.992188 L 277.691406 1056.859375 L 274.539062 1163.804688 L 212.277344 1164.378906 L 211.6875 1134.53125 L 135.910156 1135.949219 Z M 120.132812 1199.984375" />
<ns0:path style="fill-rule:evenodd;fill:rgb(85.098039%,81.568627%,78.823529%);fill-opacity:1;stroke-width:0.75;stroke-linecap:butt;stroke-linejoin:miter;stroke:rgb(72.54902%,66.27451%,61.176471%);stroke-opacity:1;stroke-miterlimit:4;" d="M 1578.371094 1387.214844 L 1579.109375 1425.339844 L 1579.902344 1465.460938 L 1617.289062 1500.886719 L 1679.257812 1499.382812 L 1679.847656 1523.914062 L 1698.894531 1523.425781 L 1698.308594 1498.9375 L 1707.902344 1499.203125 L 1707.875 1517.9375 L 1712.496094 1523.425781 L 1722.742188 1523.425781 L 1727.6875 1518.957031 L 1727.714844 1499.78125 L 1752.769531 1499.734375 L 1755.417969 1499.734375 L 1824.335938 1500.003906 L 1850.152344 1473.917969 L 1884.125 1439.15625 L 1899.523438 1438.40625 L 1903.761719 1434.109375 L 1927.253906 1410.375 L 1927.402344 1403.15625 L 1940.179688 1403.199219 L 1940.003906 1359.847656 L 1915.625 1359.667969 L 1908.945312 1359.582031 L 1883.332031 1338.367188 L 1883.125 1300.375 L 1882.359375 1236.03125 L 1840.320312 1236.25 L 1829.253906 1245.328125 L 1729.160156 1246.125 L 1711.613281 1229.519531 L 1710.40625 1220.441406 L 1700.75 1220.351562 L 1670.929688 1220.042969 L 1669.75 1225.179688 L 1627.917969 1226.375 L 1616.464844 1234.257812 L 1615.554688 1238.996094 L 1614.199219 1246.125 L 1614.933594 1304.582031 L 1614.550781 1354.089844 Z M 1578.371094 1387.214844" />
<ns0:path style="fill-rule:evenodd;fill:rgb(85.098039%,81.568627%,78.823529%);fill-opacity:1;stroke-width:0.75;stroke-linecap:butt;stroke-linejoin:miter;stroke:rgb(72.54902%,66.27451%,61.176471%);stroke-opacity:1;stroke-miterlimit:4;" d="M 117.277344 854.390625 L 139.386719 918.382812 L 228.851562 917.453125 L 239.300781 917.363281 L 239.214844 932.066406 L 321.46875 931.753906 L 321.671875 920.90625 L 346.578125 916.789062 L 378.609375 911.519531 L 378.667969 906.203125 L 525.890625 901.242188 L 525.832031 889.332031 L 525.6875 858.375 L 525.597656 839.867188 L 513.703125 839.953125 L 513.292969 819.273438 L 434.542969 820.203125 L 434.191406 834.90625 L 422.503906 835.082031 L 419.734375 591.828125 L 416.378906 452.640625 L 393.238281 453.484375 L 392.945312 445.820312 L 392.679688 438.601562 L 392.238281 426.777344 L 360.679688 433.953125 L 348.523438 436.699219 L 357.089844 488.777344 L 360.238281 597.453125 L 360.503906 616.847656 L 362.121094 760.109375 L 362.179688 765.734375 L 281.871094 767.417969 L 281.871094 784.777344 L 201.648438 785.617188 L 201.648438 868.738281 L 192.757812 869.003906 L 189.019531 854.082031 L 170.53125 854.167969 Z M 117.277344 854.390625" />
<ns0:path style="fill-rule:evenodd;fill:rgb(85.098039%,81.568627%,78.823529%);fill-opacity:1;stroke-width:0.75;stroke-linecap:butt;stroke-linejoin:miter;stroke:rgb(72.54902%,66.27451%,61.176471%);stroke-opacity:1;stroke-miterlimit:4;" d="M 1221.628906 626.28125 L 1225.484375 844.027344 L 1226.015625 872.859375 L 1227.25 943.667969 L 1246.121094 943.3125 L 1265.992188 942.960938 L 1301.40625 942.339844 L 1469.003906 939.371094 L 1468.386719 910.855469 L 1467.5625 850.363281 L 1467.269531 840.664062 L 1325.726562 843.1875 L 1325.488281 829.8125 L 1323.191406 700.238281 L 1350.601562 699.882812 L 1372.738281 699.351562 L 1370.648438 606.488281 L 1370.414062 573.449219 L 1369.882812 533.195312 L 1368.410156 455.253906 L 1292.636719 456.582031 L 1294.726562 574.511719 L 1294.84375 597.984375 L 1295.636719 624.953125 Z M 1221.628906 626.28125" />
<ns0:path style="fill-rule:evenodd;fill:rgb(85.098039%,81.568627%,78.823529%);fill-opacity:1;stroke-width:0.75;stroke-linecap:butt;stroke-linejoin:miter;stroke:rgb(72.54902%,66.27451%,61.176471%);stroke-opacity:1;stroke-miterlimit:4;" d="M 557.480469 214.34375 L 558.011719 249.683594 L 558.097656 256.722656 L 656.777344 255.261719 L 657.367188 295.828125 L 559.1875 297.289062 L 560.042969 356.410156 L 560.601562 394.140625 L 562.75 537.046875 L 798.675781 533.550781 L 797.820312 476.023438 L 796.644531 398.347656 L 694.050781 399.851562 L 693.371094 353.441406 L 795.730469 351.9375 L 793.671875 210.886719 L 683.714844 212.480469 Z M 605.261719 396.621094 L 660.605469 395.867188 L 661.3125 448.742188 L 605.96875 449.453125 Z M 668.140625 255.527344 L 761.347656 254.242188 L 761.875 293.96875 L 668.671875 295.429688 Z M 704.882812 463.359375 L 769.324219 461.808594 L 770.148438 496.394531 L 705.707031 497.945312 Z M 704.882812 463.359375" />
<ns0:path style="fill-rule:evenodd;fill:rgb(85.098039%,81.568627%,78.823529%);fill-opacity:1;stroke-width:0.75;stroke-linecap:butt;stroke-linejoin:miter;stroke:rgb(72.54902%,66.27451%,61.176471%);stroke-opacity:1;stroke-miterlimit:4;" d="M 774.59375 958.058594 L 776.097656 1058.71875 L 781.042969 1058.628906 L 781.128906 1063.058594 L 788.929688 1062.96875 L 788.871094 1058.761719 L 814.191406 1058.363281 L 814.308594 1067.265625 L 843.601562 1066.820312 L 843.539062 1062.304688 L 914.726562 1061.242188 L 921.082031 1061.152344 L 921.023438 1056.105469 L 931.5625 1055.929688 L 931.652344 1061.683594 L 942.78125 1061.507812 L 959.882812 1061.285156 L 959.796875 1054.6875 L 982.730469 1054.378906 L 982.257812 1025.503906 L 980.992188 938.796875 L 1029.242188 938.089844 L 1028.273438 874.671875 L 1027.386719 816.21875 L 996.890625 816.660156 L 996.773438 809.398438 L 900.417969 810.859375 L 900.503906 816.351562 L 867.210938 816.839844 L 821.726562 817.546875 L 822.078125 841.683594 L 777.125 842.347656 L 777.625 875.648438 L 784.367188 875.515625 L 785.605469 957.882812 Z M 774.59375 958.058594" />
<ns0:path style="fill-rule:evenodd;fill:rgb(85.098039%,81.568627%,78.823529%);fill-opacity:1;stroke-width:0.75;stroke-linecap:butt;stroke-linejoin:miter;stroke:rgb(72.54902%,66.27451%,61.176471%);stroke-opacity:1;stroke-miterlimit:4;" d="M 1562.710938 1165.085938 L 1569.746094 1165.484375 L 1578.8125 1174.5625 L 1723.507812 1172.351562 L 1738.578125 1159.152344 L 1738.726562 1154.902344 L 1750.355469 1155.390625 L 1780.738281 1184.570312 L 1877.207031 1182.625 L 1904.824219 1154.546875 L 1934.171875 1124.699219 L 1949.777344 1124.300781 L 1977.714844 1123.726562 L 1993.847656 1123.371094 L 2020.546875 1122.839844 L 2034.972656 1121.910156 L 2034.914062 1095.472656 L 2034.855469 1072.402344 L 2021.84375 1072.621094 L 1992.964844 1072.355469 L 1977.242188 1072.355469 L 1947.921875 1072.3125 L 1925.578125 1071.605469 L 1915.980469 1061.773438 L 1906.882812 1061.417969 L 1905.707031 904.476562 L 1881.359375 879.324219 L 1838.378906 879.144531 L 1838.113281 937.644531 L 1850.035156 937.601562 L 1849.859375 949.378906 L 1864.375 949.46875 L 1864.136719 954.960938 L 1835.375 954.785156 L 1835.316406 975.332031 L 1840.054688 975.417969 L 1839.878906 985.871094 L 1844.914062 990.875 L 1865.582031 991.050781 L 1865.582031 996.277344 L 1849.386719 996.277344 L 1851.007812 1062.96875 L 1868.640625 1062.4375 L 1868.523438 1066.777344 L 1863.285156 1066.777344 L 1863.167969 1076.519531 L 1869.4375 1076.34375 L 1869.4375 1084.976562 L 1864.519531 1085.199219 L 1852.804688 1096.714844 L 1840.527344 1108.757812 L 1785.800781 1108.402344 L 1785.710938 1102.824219 L 1780.03125 1097.730469 L 1768.902344 1097.863281 L 1768.8125 1093.214844 L 1748.53125 1093.480469 L 1748.855469 1110.75 L 1734.457031 1110.929688 L 1734.339844 1104.152344 L 1694.832031 1065.671875 L 1621.175781 1065.582031 L 1602.160156 1087.324219 L 1564.949219 1086.128906 Z M 1562.710938 1165.085938" />
<ns0:path style="fill-rule:evenodd;fill:rgb(85.098039%,81.568627%,78.823529%);fill-opacity:1;stroke-width:0.75;stroke-linecap:butt;stroke-linejoin:miter;stroke:rgb(72.54902%,66.27451%,61.176471%);stroke-opacity:1;stroke-miterlimit:4;" d="M 1413.453125 1573.820312 L 1413.925781 1609.335938 L 1414.070312 1621.914062 L 1414.101562 1623.640625 L 1414.128906 1624.480469 L 1414.335938 1641.351562 L 1414.394531 1645.605469 L 1414.691406 1670.136719 L 1441.390625 1669.78125 L 1446.21875 1669.738281 L 1466.089844 1669.472656 L 1467.503906 1669.429688 L 1485.316406 1669.207031 L 1496.589844 1669.074219 L 1497.53125 1669.074219 L 1501.269531 1669.03125 L 1517.726562 1668.808594 L 1517.285156 1635.863281 L 1517.257812 1634.0 L 1517.109375 1622.179688 L 1517.078125 1619.300781 L 1516.933594 1608.273438 L 1516.875 1603.046875 L 1595.300781 1602.03125 L 1596.242188 1602.03125 L 1596.359375 1612.523438 L 1596.449219 1618.8125 L 1596.566406 1627.316406 L 1596.625 1633.601562 L 1596.652344 1634.621094 L 1596.917969 1655.433594 L 1701.484375 1654.105469 L 1701.574219 1659.464844 L 1701.632812 1664.644531 L 1714.320312 1664.46875 L 1727.65625 1664.292969 L 1728.71875 1664.292969 L 1741.199219 1664.113281 L 1746.351562 1664.070312 L 1756.390625 1663.9375 L 1759.71875 1663.894531 L 1777.175781 1663.671875 L 1790.921875 1663.496094 L 1802.875 1663.316406 L 1804.347656 1663.316406 L 1804.875 1663.273438 L 1816.769531 1663.140625 L 1818.183594 1663.09375 L 1830.28125 1662.960938 L 1831.695312 1662.960938 L 1832.34375 1662.917969 L 1845.503906 1662.742188 L 1859.191406 1662.5625 L 1859.839844 1662.609375 L 1872.96875 1662.386719 L 1887.453125 1662.210938 L 1909.914062 1661.945312 L 1913.507812 1661.855469 L 1941.386719 1661.546875 L 1941.089844 1638.738281 L 1940.945312 1628.730469 L 1940.945312 1627.003906 L 1940.738281 1612.082031 L 1940.621094 1602.738281 L 1940.472656 1591.09375 L 1940.414062 1586.042969 L 1912.683594 1586.398438 L 1895.992188 1586.621094 L 1895.871094 1577.761719 L 1895.726562 1567.488281 L 1889.308594 1567.535156 L 1868.140625 1567.753906 L 1853.773438 1567.976562 L 1851.507812 1568.019531 L 1834.199219 1568.375 L 1821.628906 1568.550781 L 1808.085938 1568.730469 L 1779.792969 1569.082031 L 1761.425781 1569.347656 L 1756.066406 1569.394531 L 1754.417969 1569.304688 L 1746.351562 1569.480469 L 1733.574219 1569.660156 L 1729.925781 1569.746094 L 1715.382812 1569.925781 L 1701.339844 1570.144531 L 1686.796875 1570.324219 L 1684.589844 1570.367188 L 1672.929688 1570.5 L 1659.242188 1570.675781 L 1642.253906 1570.898438 L 1619.703125 1571.207031 L 1614.933594 1571.253906 L 1595.859375 1571.476562 L 1581.757812 1571.695312 L 1568.628906 1571.828125 L 1554.761719 1572.007812 L 1541.042969 1572.183594 L 1528.117188 1572.359375 L 1515.285156 1572.539062 L 1501.242188 1572.714844 L 1485.636719 1572.890625 L 1472.714844 1573.070312 L 1466.238281 1573.15625 L 1465.648438 1573.203125 L 1462.410156 1573.644531 L 1440.125 1573.511719 Z M 1413.453125 1573.820312" />
<ns0:path style="fill-rule:evenodd;fill:rgb(85.098039%,81.568627%,78.823529%);fill-opacity:1;stroke-width:0.75;stroke-linecap:butt;stroke-linejoin:miter;stroke:rgb(72.54902%,66.27451%,61.176471%);stroke-opacity:1;stroke-miterlimit:4;" d="M 550.414062 955.535156 L 552.683594 978.828125 L 558.363281 1008.324219 L 567.429688 1030.90625 L 580.472656 1030.820312 L 591.453125 1030.507812 L 602.226562 1030.464844 L 602.730469 1061.683594 L 616.449219 1061.464844 L 616.828125 1065.183594 L 670.617188 1072.886719 L 680.390625 1004.601562 L 664.492188 1001.8125 L 663.785156 960.007812 L 663.726562 956.421875 L 688.335938 955.316406 L 688.277344 867.457031 L 662.285156 867.632812 L 662.136719 858.464844 L 657.867188 852.886719 L 657.75 848.148438 L 663.636719 845.667969 L 663.636719 842.964844 L 678.976562 842.878906 L 678.035156 709.800781 L 640.644531 710.070312 L 568.078125 710.601562 L 568.253906 733.804688 L 558.628906 733.894531 L 554.859375 838.980469 L 555.007812 848.058594 L 569.84375 848.101562 L 569.785156 855.808594 L 570.050781 889.109375 L 569.902344 892.960938 L 570.226562 929.410156 L 569.402344 931.445312 L 564.074219 931.535156 L 550.5625 931.445312 Z M 550.414062 955.535156" />
<ns0:path style="fill-rule:evenodd;fill:rgb(85.098039%,81.568627%,78.823529%);fill-opacity:1;stroke-width:0.75;stroke-linecap:butt;stroke-linejoin:miter;stroke:rgb(72.54902%,66.27451%,61.176471%);stroke-opacity:1;stroke-miterlimit:4;" d="M 1286.277344 1896.949219 L 1286.335938 1916.125 L 1286.394531 1924.628906 L 1286.394531 1925.867188 L 1286.421875 1933.128906 L 1286.628906 1977.367188 L 1286.835938 2020.1875 L 1286.894531 2037.722656 L 1443.011719 2037.015625 L 1442.921875 2020.011719 L 1442.804688 1993.839844 L 1442.746094 1978.164062 L 1442.511719 1926.042969 L 1442.480469 1923.742188 L 1442.449219 1915.328125 L 1442.539062 1915.328125 L 1442.449219 1896.949219 L 1442.214844 1843.902344 L 1413.867188 1844.035156 L 1362.316406 1844.253906 L 1321.984375 1844.433594 L 1322.164062 1896.863281 L 1287.511719 1897.039062 Z M 1286.277344 1896.949219" />
<ns0:path style="fill-rule:evenodd;fill:rgb(85.098039%,81.568627%,78.823529%);fill-opacity:1;stroke-width:0.75;stroke-linecap:butt;stroke-linejoin:miter;stroke:rgb(72.54902%,66.27451%,61.176471%);stroke-opacity:1;stroke-miterlimit:4;" d="M 686.21875 1171.6875 L 686.394531 1183.421875 L 686.511719 1190.773438 L 687.660156 1250.820312 L 687.894531 1273.316406 L 758.050781 1271.8125 L 758.433594 1265.699219 L 776.214844 1265.523438 L 777.183594 1280.535156 L 833.441406 1280.535156 L 856.9375 1193.472656 L 837.003906 1194.449219 L 836.035156 1172.703125 L 835.535156 1124.832031 L 700.644531 1128.90625 L 700.496094 1170.445312 Z M 686.21875 1171.6875" />
<ns0:path style="fill-rule:evenodd;fill:rgb(85.098039%,81.568627%,78.823529%);fill-opacity:1;stroke-width:0.75;stroke-linecap:butt;stroke-linejoin:miter;stroke:rgb(72.54902%,66.27451%,61.176471%);stroke-opacity:1;stroke-miterlimit:4;" d="M 683.980469 1376.671875 L 685.304688 1520.238281 L 706.207031 1520.105469 L 720.101562 1519.796875 L 766.027344 1519.441406 L 765.4375 1456.207031 L 738.738281 1456.472656 L 738.589844 1440.0 L 776.742188 1439.644531 L 776.15625 1374.148438 L 754.664062 1374.371094 L 754.457031 1351.699219 L 786.605469 1351.386719 L 786.164062 1303.339844 L 695.84375 1304.136719 L 696.257812 1349.617188 L 705.058594 1349.527344 L 705.292969 1376.496094 Z M 683.980469 1376.671875" />
<ns0:path style="fill-rule:evenodd;fill:rgb(85.098039%,81.568627%,78.823529%);fill-opacity:1;stroke-width:0.75;stroke-linecap:butt;stroke-linejoin:miter;stroke:rgb(72.54902%,66.27451%,61.176471%);stroke-opacity:1;stroke-miterlimit:4;" d="M 1684.617188 348.925781 L 1684.675781 371.953125 L 1684.792969 375.628906 L 1684.882812 379.304688 L 1685.148438 406.40625 L 1701.722656 406.273438 L 1722.003906 405.832031 L 1723.773438 405.789062 L 1742.730469 405.609375 L 1742.257812 378.285156 L 1754.242188 378.152344 L 1764.339844 378.640625 L 1764.191406 384.886719 L 1764.308594 391.660156 L 1764.28125 396.222656 L 1764.28125 399.453125 L 1764.25 405.699219 L 1764.367188 413.359375 L 1764.632812 431.429688 L 1791.835938 431.03125 L 1799.3125 431.03125 L 1821.773438 430.71875 L 1821.539062 414.734375 L 1821.570312 413.09375 L 1821.304688 406.007812 L 1821.304688 402.199219 L 1821.332031 391.261719 L 1821.332031 387.496094 L 1821.15625 378.597656 L 1821.128906 376.070312 L 1820.980469 368.722656 L 1820.949219 361.8125 L 1820.863281 354.902344 L 1820.804688 351.804688 L 1846.621094 351.449219 L 1846.269531 327.136719 L 1846.269531 319.828125 L 1845.828125 293.65625 L 1828.839844 293.921875 L 1816.828125 294.054688 L 1807.027344 294.1875 L 1788.273438 294.367188 L 1788.566406 321.113281 L 1778.617188 321.378906 L 1767.578125 321.46875 L 1767.253906 302.515625 L 1767.136719 290.957031 L 1767.019531 285.199219 L 1766.871094 268.636719 L 1738.816406 269.035156 L 1731.21875 269.035156 L 1709.730469 269.390625 L 1709.964844 284.667969 L 1709.996094 296.179688 L 1710.054688 298.75 L 1710.289062 310.882812 L 1710.554688 320.894531 L 1710.554688 323.0625 L 1710.523438 335.375 L 1710.523438 337.457031 L 1710.90625 343.65625 L 1710.964844 348.527344 L 1698.628906 348.882812 Z M 1684.617188 348.925781" />
<ns0:path style="fill-rule:evenodd;fill:rgb(85.098039%,81.568627%,78.823529%);fill-opacity:1;stroke-width:0.75;stroke-linecap:butt;stroke-linejoin:miter;stroke:rgb(72.54902%,66.27451%,61.176471%);stroke-opacity:1;stroke-miterlimit:4;" d="M 1265.226562 1545.257812 L 1266.316406 1632.1875 L 1266.757812 1667.566406 L 1355.105469 1666.460938 L 1354.722656 1636.347656 L 1352.957031 1496.945312 L 1304.175781 1496.945312 L 1276.238281 1496.8125 L 1275.855469 1539.679688 L 1275.796875 1545.125 Z M 1265.226562 1545.257812" />
<ns0:path style="fill-rule:evenodd;fill:rgb(85.098039%,81.568627%,78.823529%);fill-opacity:1;stroke-width:0.75;stroke-linecap:butt;stroke-linejoin:miter;stroke:rgb(72.54902%,66.27451%,61.176471%);stroke-opacity:1;stroke-miterlimit:4;" d="M 677.976562 1563.105469 L 680.183594 1664.824219 L 694.109375 1664.558594 L 694.550781 1685.902344 L 684.246094 1686.121094 L 684.6875 1706.449219 L 735.5 1705.386719 L 735.058594 1685.148438 L 732.289062 1685.191406 L 731.703125 1658.3125 L 741.503906 1658.136719 L 739.414062 1561.730469 L 721.074219 1562.132812 L 707.179688 1562.441406 Z M 677.976562 1563.105469" />
<ns0:path style="fill-rule:evenodd;fill:rgb(85.098039%,81.568627%,78.823529%);fill-opacity:1;stroke-width:0.75;stroke-linecap:butt;stroke-linejoin:miter;stroke:rgb(72.54902%,66.27451%,61.176471%);stroke-opacity:1;stroke-miterlimit:4;" d="M 1766.222656 121.253906 L 1767.519531 181.261719 L 1801.726562 180.550781 L 1801.667969 177.851562 L 1818.242188 177.496094 L 1838.289062 177.097656 L 1838.113281 173.554688 L 1870.144531 173.066406 L 1869.171875 111.421875 L 1837.140625 111.910156 L 1837.199219 115.496094 L 1800.429688 116.160156 L 1800.429688 120.5 Z M 1766.222656 121.253906" />
<ns0:path style="fill-rule:evenodd;fill:rgb(85.098039%,81.568627%,78.823529%);fill-opacity:1;stroke-width:0.75;stroke-linecap:butt;stroke-linejoin:miter;stroke:rgb(72.54902%,66.27451%,61.176471%);stroke-opacity:1;stroke-miterlimit:4;" d="M 350.582031 374.964844 L 351.4375 434.394531 L 360.679688 433.953125 L 392.238281 426.777344 L 392.679688 438.601562 L 414.90625 438.070312 L 413.933594 373.992188 Z M 350.582031 374.964844" />
<ns0:path style="fill-rule:evenodd;fill:rgb(85.098039%,81.568627%,78.823529%);fill-opacity:1;stroke-width:0.75;stroke-linecap:butt;stroke-linejoin:miter;stroke:rgb(72.54902%,66.27451%,61.176471%);stroke-opacity:1;stroke-miterlimit:4;" d="M 286.289062 581.511719 L 287.082031 639.832031 L 342.398438 639.035156 L 342.105469 617.113281 L 360.503906 616.847656 L 360.238281 597.453125 L 343.457031 597.675781 L 343.222656 580.714844 Z M 286.289062 581.511719" />
<ns0:path style="fill-rule:evenodd;fill:rgb(85.098039%,81.568627%,78.823529%);fill-opacity:1;stroke-width:0.75;stroke-linecap:butt;stroke-linejoin:miter;stroke:rgb(72.54902%,66.27451%,61.176471%);stroke-opacity:1;stroke-miterlimit:4;" d="M 525.597656 839.867188 L 525.6875 858.375 L 525.832031 889.332031 L 570.050781 889.109375 L 569.785156 855.808594 L 569.84375 848.101562 L 555.007812 848.058594 L 549.828125 848.191406 L 549.796875 839.734375 Z M 525.597656 839.867188" />
<ns0:path style="fill-rule:evenodd;fill:rgb(85.098039%,81.568627%,78.823529%);fill-opacity:1;stroke-width:0.75;stroke-linecap:butt;stroke-linejoin:miter;stroke:rgb(72.54902%,66.27451%,61.176471%);stroke-opacity:1;stroke-miterlimit:4;" d="M 641.058594 1172.351562 L 641.234375 1184.039062 L 641.351562 1191.4375 L 686.511719 1190.773438 L 686.394531 1183.421875 L 686.21875 1171.6875 Z M 641.058594 1172.351562" />
<ns0:path style="fill-rule:evenodd;fill:rgb(85.098039%,81.568627%,78.823529%);fill-opacity:1;stroke-width:0.75;stroke-linecap:butt;stroke-linejoin:miter;stroke:rgb(72.54902%,66.27451%,61.176471%);stroke-opacity:1;stroke-miterlimit:4;" d="M 1491.320312 1393.722656 L 1491.46875 1405.988281 L 1519.433594 1405.636719 L 1519.289062 1393.367188 Z M 1491.320312 1393.722656" />
<ns0:path style="fill-rule:evenodd;fill:rgb(85.098039%,81.568627%,78.823529%);fill-opacity:1;stroke-width:0.75;stroke-linecap:butt;stroke-linejoin:miter;stroke:rgb(72.54902%,66.27451%,61.176471%);stroke-opacity:1;stroke-miterlimit:4;" d="M 1637.75 745.496094 L 1637.957031 761.304688 L 1653.824219 761.085938 L 1653.824219 745.671875 Z M 1637.75 745.496094" />
<ns0:path style="fill-rule:evenodd;fill:rgb(85.098039%,81.568627%,78.823529%);fill-opacity:1;stroke-width:0.75;stroke-linecap:butt;stroke-linejoin:miter;stroke:rgb(72.54902%,66.27451%,61.176471%);stroke-opacity:1;stroke-miterlimit:4;" d="M 1248.269531 1341.070312 L 1262.84375 1341.335938 L 1262.753906 1353.203125 L 1262.546875 1381.941406 L 1262.371094 1409.089844 L 1262.164062 1438.582031 L 1262.078125 1451.867188 L 1261.960938 1468.871094 L 1275.707031 1468.871094 L 1276.179688 1493.316406 L 1276.238281 1496.8125 L 1275.855469 1539.679688 L 1275.796875 1545.125 L 1265.226562 1545.257812 L 1266.316406 1632.1875 L 1266.757812 1667.566406 L 1355.105469 1666.460938 L 1354.722656 1636.347656 L 1352.957031 1496.945312 L 1353.574219 1465.59375 L 1339.296875 1465.105469 L 1339.382812 1461.875 L 1339.472656 1450.890625 L 1309.652344 1450.757812 L 1309.652344 1440.839844 L 1320.367188 1440.042969 L 1319.308594 1326.945312 L 1318.867188 1312.90625 L 1318.570312 1300.90625 L 1331.082031 1300.859375 L 1331.199219 1305.910156 L 1342.652344 1306.527344 L 1386.546875 1306.261719 L 1386.515625 1302.1875 L 1410.863281 1302.054688 L 1410.921875 1312.773438 L 1426.082031 1312.683594 L 1469.949219 1312.152344 L 1469.859375 1305.066406 L 1495.53125 1304.757812 L 1495.824219 1329.289062 L 1586.761719 1328.007812 L 1586.496094 1304.933594 L 1614.933594 1304.582031 L 1614.199219 1246.125 L 1595.328125 1246.613281 L 1518.402344 1248.519531 L 1518.550781 1235.277344 L 1473.890625 1234.921875 L 1445.042969 1234.65625 L 1410.832031 1234.390625 L 1411.070312 1253.390625 L 1262.195312 1254.894531 L 1262.046875 1266.097656 L 1261.84375 1280.800781 L 1248.417969 1280.402344 L 1248.328125 1309.804688 Z M 1248.269531 1341.070312" />
<ns0:path style="fill-rule:evenodd;fill:rgb(85.098039%,81.568627%,78.823529%);fill-opacity:1;stroke-width:0.75;stroke-linecap:butt;stroke-linejoin:miter;stroke:rgb(72.54902%,66.27451%,61.176471%);stroke-opacity:1;stroke-miterlimit:4;" d="M 1596.949219 2215.160156 L 1597.09375 2229.550781 L 1612.992188 2229.375 L 1613.464844 2234.511719 L 1613.726562 2242.792969 L 1606.722656 2242.792969 L 1608.371094 2324.847656 L 1632.863281 2324.136719 L 1650.144531 2324.09375 L 1652.117188 2409.289062 L 1736.371094 2408.316406 L 1734.222656 2267.855469 L 1690.976562 2266.925781 L 1686.296875 2225.789062 L 1682.203125 1912.761719 L 1681.054688 1824.328125 L 1600.6875 1825.390625 L 1601.835938 1913.734375 L 1605.457031 2214.585938 Z M 1596.949219 2215.160156" />
<ns0:path style="fill-rule:evenodd;fill:rgb(85.098039%,81.568627%,78.823529%);fill-opacity:1;stroke-width:0.75;stroke-linecap:butt;stroke-linejoin:miter;stroke:rgb(72.54902%,66.27451%,61.176471%);stroke-opacity:1;stroke-miterlimit:4;" d="M 1369.882812 533.195312 L 1370.414062 573.449219 L 1411.714844 572.917969 L 1411.835938 582.085938 L 1556.085938 580.09375 L 1581.84375 579.738281 L 1584.054688 740.535156 L 1510.925781 741.554688 L 1512.398438 849.785156 L 1467.5625 850.363281 L 1468.386719 910.855469 L 1484.078125 910.632812 L 1505.628906 910.320312 L 1507.394531 1037.503906 L 1512.515625 1037.460938 L 1513.164062 1086.839844 L 1540.75 1086.441406 L 1564.949219 1086.128906 L 1564.507812 1054.910156 L 1564.269531 1036.929688 L 1563.828125 1003.628906 L 1586.378906 1003.320312 L 1586.171875 987.996094 L 1563.417969 988.304688 L 1561.386719 839.15625 L 1560.796875 797.351562 L 1638.457031 796.289062 L 1637.957031 761.304688 L 1637.75 745.496094 L 1634.71875 523.941406 L 1567.242188 524.824219 L 1412.363281 526.953125 L 1412.453125 532.621094 L 1382.925781 533.019531 Z M 1369.882812 533.195312" />
<ns0:path style="fill-rule:evenodd;fill:rgb(85.098039%,81.568627%,78.823529%);fill-opacity:1;stroke-width:0.75;stroke-linecap:butt;stroke-linejoin:miter;stroke:rgb(72.54902%,66.27451%,61.176471%);stroke-opacity:1;stroke-miterlimit:4;" d="M 1171.316406 1022.273438 L 1172.699219 1090.558594 L 1186.507812 1091.179688 L 1186.714844 1100.609375 L 1180.972656 1101.230469 L 1180.796875 1124.523438 L 1205.261719 1149.011719 L 1214.089844 1149.5 L 1220.480469 1149.101562 L 1221.453125 1181.5625 L 1237.054688 1196.972656 L 1248.976562 1197.105469 L 1296.84375 1197.546875 L 1295.667969 1178.417969 L 1323.839844 1178.019531 L 1402.0 1179.035156 L 1414.835938 1164.46875 L 1469.0625 1164.289062 L 1477.101562 1174.742188 L 1523.644531 1173.546875 L 1537.304688 1165.484375 L 1562.710938 1165.085938 L 1564.949219 1086.128906 L 1540.75 1086.441406 L 1513.164062 1086.839844 L 1510.191406 1086.882812 L 1510.160156 1098.660156 L 1455.140625 1099.324219 L 1441.125 1087.769531 L 1321.542969 1088.035156 L 1310.679688 1077.582031 L 1301.910156 1069.125 L 1301.40625 942.339844 L 1265.992188 942.960938 L 1267.433594 992.070312 L 1200.933594 993.84375 Z M 1171.316406 1022.273438" />
<ns0:path style="fill-rule:evenodd;fill:rgb(85.098039%,81.568627%,78.823529%);fill-opacity:1;stroke-width:0.75;stroke-linecap:butt;stroke-linejoin:miter;stroke:rgb(72.54902%,66.27451%,61.176471%);stroke-opacity:1;stroke-miterlimit:4;" d="M 1767.402344 721.582031 L 1768.929688 773.839844 L 1803.257812 773.308594 L 1802.226562 746.957031 L 1835.257812 714.097656 L 1879.328125 714.144531 L 1881.976562 850.894531 L 1916.570312 850.980469 L 1913.652344 672.648438 L 1811.472656 674.597656 Z M 1767.402344 721.582031" />
<ns0:path style="fill-rule:evenodd;fill:rgb(85.098039%,81.568627%,78.823529%);fill-opacity:1;stroke-width:0.75;stroke-linecap:butt;stroke-linejoin:miter;stroke:rgb(72.54902%,66.27451%,61.176471%);stroke-opacity:1;stroke-miterlimit:4;" d="M 1769.3125 793.058594 L 1772.492188 937.867188 L 1838.113281 937.644531 L 1838.378906 879.144531 L 1804.171875 878.96875 L 1803.667969 792.660156 Z M 1769.3125 793.058594" />
<ns0:path style="fill-rule:evenodd;fill:rgb(85.098039%,81.568627%,78.823529%);fill-opacity:1;stroke-width:0.75;stroke-linecap:butt;stroke-linejoin:miter;stroke:rgb(72.54902%,66.27451%,61.176471%);stroke-opacity:1;stroke-miterlimit:4;" d="M 706.207031 1520.105469 L 707.179688 1562.441406 L 721.074219 1562.132812 L 720.101562 1519.796875 Z M 706.207031 1520.105469" />
<line x1="0" y1="10" x2="100" y2="10" style="stroke:rgb(0,0,0);stroke-width:2" /><line x1="100" y1="10" x2="200" y2="10" style="stroke:rgb(100%,100%,100%);stroke-width:2" /><line x1="200" y1="10" x2="300" y2="10" style="stroke:rgb(0,0,0);stroke-width:2" /><line x1="300" y1="10" x2="400" y2="10" style="stroke:rgb(100%,100%,100%);stroke-width:2" /><line x1="400" y1="10" x2="500" y2="10" style="stroke:rgb(0,0,0);stroke-width:2" /><line x1="500" y1="10" x2="600" y2="10" style="stroke:rgb(100%,100%,100%);stroke-width:2" /><line x1="600" y1="10" x2="700" y2="10" style="stroke:rgb(0,0,0);stroke-width:2" /><line x1="700" y1="10" x2="800" y2="10" style="stroke:rgb(100%,100%,100%);stroke-width:2" /><line x1="800" y1="10" x2="900" y2="10" style="stroke:rgb(0,0,0);stroke-width:2" /><line x1="900" y1="10" x2="1000" y2="10" style="stroke:rgb(100%,100%,100%);stroke-width:2" /><line x1="1000" y1="10" x2="1100" y2="10" style="stroke:rgb(0,0,0);stroke-width:2" /><line x1="1100" y1="10" x2="1200" y2="10" style="stroke:rgb(100%,100%,100%);stroke-width:2" /><line x1="1200" y1="10" x2="1300" y2="10" style="stroke:rgb(0,0,0);stroke-width:2" /><line x1="1300" y1="10" x2="1400" y2="10" style="stroke:rgb(100%,100%,100%);stroke-width:2" /><line x1="1400" y1="10" x2="1500" y2="10" style="stroke:rgb(0,0,0);stroke-width:2" /><line x1="1500" y1="10" x2="1600" y2="10" style="stroke:rgb(100%,100%,100%);stroke-width:2" /><line x1="1600" y1="10" x2="1700" y2="10" style="stroke:rgb(0,0,0);stroke-width:2" /><line x1="1700" y1="10" x2="1800" y2="10" style="stroke:rgb(100%,100%,100%);stroke-width:2" /><line x1="1800" y1="10" x2="1900" y2="10" style="stroke:rgb(0,0,0);stroke-width:2" /><line x1="1900" y1="10" x2="2000" y2="10" style="stroke:rgb(100%,100%,100%);stroke-width:2" /><text x="10" y="30" style="font-size:12px">100 m</text></svg>